<mxfile host="Electron" modified="2025-09-24T00:26:05.686Z" agent="Mozilla/5.0 (X11; Linux x86_64) AppleWebKit/537.36 (KHTML, like Gecko) draw.io/21.6.5 Chrome/114.0.5735.243 Electron/25.3.1 Safari/537.36" etag="gkZ1IAvMPmX8-QHDijk8" version="21.6.5" type="device">
  <diagram name="Page-1" id="onFlv4uZrphvszd4BMZY">
    <mxGraphModel dx="932" dy="1648" grid="1" gridSize="10" guides="1" tooltips="1" connect="1" arrows="1" fold="1" page="1" pageScale="1" pageWidth="827" pageHeight="1169" math="0" shadow="0">
      <root>
        <mxCell id="0" />
        <mxCell id="1" parent="0" />
        <mxCell id="afJA_rKFMBOFENiafJzM-1" value="0.2" style="rounded=0;whiteSpace=wrap;html=1;" vertex="1" parent="1">
          <mxGeometry x="240" y="400" width="40" height="40" as="geometry" />
        </mxCell>
        <mxCell id="afJA_rKFMBOFENiafJzM-2" value="3.14" style="rounded=0;whiteSpace=wrap;html=1;" vertex="1" parent="1">
          <mxGeometry x="300" y="400" width="40" height="40" as="geometry" />
        </mxCell>
        <mxCell id="afJA_rKFMBOFENiafJzM-3" value="1.4" style="rounded=0;whiteSpace=wrap;html=1;" vertex="1" parent="1">
          <mxGeometry x="360" y="400" width="40" height="40" as="geometry" />
        </mxCell>
        <mxCell id="afJA_rKFMBOFENiafJzM-4" value="2.0" style="rounded=0;whiteSpace=wrap;html=1;" vertex="1" parent="1">
          <mxGeometry x="420" y="400" width="40" height="40" as="geometry" />
        </mxCell>
        <mxCell id="afJA_rKFMBOFENiafJzM-5" value="3.6" style="rounded=0;whiteSpace=wrap;html=1;" vertex="1" parent="1">
          <mxGeometry x="480" y="400" width="40" height="40" as="geometry" />
        </mxCell>
        <mxCell id="afJA_rKFMBOFENiafJzM-6" value="2.9" style="rounded=0;whiteSpace=wrap;html=1;" vertex="1" parent="1">
          <mxGeometry x="240" y="510" width="40" height="40" as="geometry" />
        </mxCell>
        <mxCell id="afJA_rKFMBOFENiafJzM-7" value="0.3" style="rounded=0;whiteSpace=wrap;html=1;" vertex="1" parent="1">
          <mxGeometry x="300" y="510" width="40" height="40" as="geometry" />
        </mxCell>
        <mxCell id="afJA_rKFMBOFENiafJzM-8" value="1.2" style="rounded=0;whiteSpace=wrap;html=1;" vertex="1" parent="1">
          <mxGeometry x="360" y="510" width="40" height="40" as="geometry" />
        </mxCell>
        <mxCell id="afJA_rKFMBOFENiafJzM-9" value="-1.2" style="rounded=0;whiteSpace=wrap;html=1;" vertex="1" parent="1">
          <mxGeometry x="420" y="510" width="40" height="40" as="geometry" />
        </mxCell>
        <mxCell id="afJA_rKFMBOFENiafJzM-10" value="3.4" style="rounded=0;whiteSpace=wrap;html=1;" vertex="1" parent="1">
          <mxGeometry x="480" y="510" width="40" height="40" as="geometry" />
        </mxCell>
        <mxCell id="afJA_rKFMBOFENiafJzM-11" value="6.5" style="rounded=0;whiteSpace=wrap;html=1;" vertex="1" parent="1">
          <mxGeometry x="240" y="620" width="40" height="40" as="geometry" />
        </mxCell>
        <mxCell id="afJA_rKFMBOFENiafJzM-12" value="3.4" style="rounded=0;whiteSpace=wrap;html=1;" vertex="1" parent="1">
          <mxGeometry x="300" y="620" width="40" height="40" as="geometry" />
        </mxCell>
        <mxCell id="afJA_rKFMBOFENiafJzM-13" value="1.3" style="rounded=0;whiteSpace=wrap;html=1;" vertex="1" parent="1">
          <mxGeometry x="360" y="620" width="40" height="40" as="geometry" />
        </mxCell>
        <mxCell id="afJA_rKFMBOFENiafJzM-14" value="2.5" style="rounded=0;whiteSpace=wrap;html=1;" vertex="1" parent="1">
          <mxGeometry x="420" y="620" width="40" height="40" as="geometry" />
        </mxCell>
        <mxCell id="afJA_rKFMBOFENiafJzM-15" value="8.2" style="rounded=0;whiteSpace=wrap;html=1;" vertex="1" parent="1">
          <mxGeometry x="480" y="620" width="40" height="40" as="geometry" />
        </mxCell>
        <mxCell id="afJA_rKFMBOFENiafJzM-16" value="-5.0" style="rounded=0;whiteSpace=wrap;html=1;" vertex="1" parent="1">
          <mxGeometry x="240" y="730" width="40" height="40" as="geometry" />
        </mxCell>
        <mxCell id="afJA_rKFMBOFENiafJzM-17" value="-0.1" style="rounded=0;whiteSpace=wrap;html=1;" vertex="1" parent="1">
          <mxGeometry x="300" y="730" width="40" height="40" as="geometry" />
        </mxCell>
        <mxCell id="afJA_rKFMBOFENiafJzM-18" value="0.8" style="rounded=0;whiteSpace=wrap;html=1;" vertex="1" parent="1">
          <mxGeometry x="360" y="730" width="40" height="40" as="geometry" />
        </mxCell>
        <mxCell id="afJA_rKFMBOFENiafJzM-19" value="1.8" style="rounded=0;whiteSpace=wrap;html=1;" vertex="1" parent="1">
          <mxGeometry x="420" y="730" width="40" height="40" as="geometry" />
        </mxCell>
        <mxCell id="afJA_rKFMBOFENiafJzM-20" value="1.3" style="rounded=0;whiteSpace=wrap;html=1;" vertex="1" parent="1">
          <mxGeometry x="480" y="730" width="40" height="40" as="geometry" />
        </mxCell>
        <mxCell id="afJA_rKFMBOFENiafJzM-21" value="4.0" style="rounded=0;whiteSpace=wrap;html=1;" vertex="1" parent="1">
          <mxGeometry x="240" y="840" width="40" height="40" as="geometry" />
        </mxCell>
        <mxCell id="afJA_rKFMBOFENiafJzM-22" value="0.2" style="rounded=0;whiteSpace=wrap;html=1;" vertex="1" parent="1">
          <mxGeometry x="300" y="840" width="40" height="40" as="geometry" />
        </mxCell>
        <mxCell id="afJA_rKFMBOFENiafJzM-23" value="2.0" style="rounded=0;whiteSpace=wrap;html=1;" vertex="1" parent="1">
          <mxGeometry x="360" y="840" width="40" height="40" as="geometry" />
        </mxCell>
        <mxCell id="afJA_rKFMBOFENiafJzM-24" value="9.0" style="rounded=0;whiteSpace=wrap;html=1;" vertex="1" parent="1">
          <mxGeometry x="420" y="840" width="40" height="40" as="geometry" />
        </mxCell>
        <mxCell id="afJA_rKFMBOFENiafJzM-25" value="0.5" style="rounded=0;whiteSpace=wrap;html=1;" vertex="1" parent="1">
          <mxGeometry x="480" y="840" width="40" height="40" as="geometry" />
        </mxCell>
        <mxCell id="afJA_rKFMBOFENiafJzM-27" value="*" style="rounded=0;whiteSpace=wrap;html=1;fontSize=24;fillColor=#fff2cc;strokeColor=#d6b656;" vertex="1" parent="1">
          <mxGeometry x="580" y="360" width="40" height="80" as="geometry" />
        </mxCell>
        <mxCell id="afJA_rKFMBOFENiafJzM-28" value="" style="endArrow=none;html=1;rounded=0;entryX=0;entryY=0.25;entryDx=0;entryDy=0;" edge="1" target="afJA_rKFMBOFENiafJzM-27" parent="1">
          <mxGeometry width="50" height="50" relative="1" as="geometry">
            <mxPoint x="560" y="380" as="sourcePoint" />
            <mxPoint x="770" y="390" as="targetPoint" />
          </mxGeometry>
        </mxCell>
        <mxCell id="afJA_rKFMBOFENiafJzM-29" value="" style="endArrow=none;html=1;rounded=0;entryX=0;entryY=0.25;entryDx=0;entryDy=0;fillColor=#f5f5f5;strokeColor=#666666;" edge="1" parent="1">
          <mxGeometry width="50" height="50" relative="1" as="geometry">
            <mxPoint x="520" y="420" as="sourcePoint" />
            <mxPoint x="580" y="420" as="targetPoint" />
          </mxGeometry>
        </mxCell>
        <mxCell id="afJA_rKFMBOFENiafJzM-30" value="" style="endArrow=none;html=1;rounded=0;" edge="1" parent="1">
          <mxGeometry width="50" height="50" relative="1" as="geometry">
            <mxPoint x="620" y="400" as="sourcePoint" />
            <mxPoint x="660" y="400" as="targetPoint" />
          </mxGeometry>
        </mxCell>
        <mxCell id="afJA_rKFMBOFENiafJzM-31" value="&#39;8" style="text;html=1;strokeColor=none;fillColor=none;align=center;verticalAlign=middle;whiteSpace=wrap;rounded=0;fontSize=10;" vertex="1" parent="1">
          <mxGeometry x="620" y="385" width="20" height="10" as="geometry" />
        </mxCell>
        <mxCell id="afJA_rKFMBOFENiafJzM-32" value="&#39;0" style="text;html=1;strokeColor=none;fillColor=none;align=center;verticalAlign=middle;whiteSpace=wrap;rounded=0;fontSize=10;" vertex="1" parent="1">
          <mxGeometry x="560" y="405" width="20" height="10" as="geometry" />
        </mxCell>
        <mxCell id="afJA_rKFMBOFENiafJzM-33" value="&#39;0" style="text;html=1;strokeColor=none;fillColor=none;align=center;verticalAlign=middle;whiteSpace=wrap;rounded=0;fontSize=10;" vertex="1" parent="1">
          <mxGeometry x="560" y="365" width="20" height="10" as="geometry" />
        </mxCell>
        <mxCell id="afJA_rKFMBOFENiafJzM-34" value="+&lt;br&gt;acc" style="rounded=0;whiteSpace=wrap;html=1;fontSize=24;fillColor=#fff2cc;strokeColor=#d6b656;" vertex="1" parent="1">
          <mxGeometry x="680" y="340" width="40" height="80" as="geometry" />
        </mxCell>
        <mxCell id="afJA_rKFMBOFENiafJzM-35" value="" style="endArrow=none;html=1;rounded=0;entryX=0;entryY=0.25;entryDx=0;entryDy=0;" edge="1" target="afJA_rKFMBOFENiafJzM-34" parent="1">
          <mxGeometry width="50" height="50" relative="1" as="geometry">
            <mxPoint x="660" y="360" as="sourcePoint" />
            <mxPoint x="870" y="370" as="targetPoint" />
          </mxGeometry>
        </mxCell>
        <mxCell id="afJA_rKFMBOFENiafJzM-36" value="" style="endArrow=none;html=1;rounded=0;entryX=0;entryY=0.25;entryDx=0;entryDy=0;" edge="1" parent="1">
          <mxGeometry width="50" height="50" relative="1" as="geometry">
            <mxPoint x="660" y="400" as="sourcePoint" />
            <mxPoint x="680" y="400" as="targetPoint" />
          </mxGeometry>
        </mxCell>
        <mxCell id="afJA_rKFMBOFENiafJzM-37" value="" style="endArrow=none;html=1;rounded=0;" edge="1" parent="1">
          <mxGeometry width="50" height="50" relative="1" as="geometry">
            <mxPoint x="720" y="380" as="sourcePoint" />
            <mxPoint x="660" y="360" as="targetPoint" />
            <Array as="points">
              <mxPoint x="740" y="380" />
              <mxPoint x="740" y="320" />
              <mxPoint x="660" y="320" />
            </Array>
          </mxGeometry>
        </mxCell>
        <mxCell id="afJA_rKFMBOFENiafJzM-39" value="&#39;0" style="text;html=1;strokeColor=none;fillColor=none;align=center;verticalAlign=middle;whiteSpace=wrap;rounded=0;fontSize=10;" vertex="1" parent="1">
          <mxGeometry x="660" y="385" width="20" height="10" as="geometry" />
        </mxCell>
        <mxCell id="afJA_rKFMBOFENiafJzM-41" value="" style="endArrow=classic;html=1;rounded=0;endFill=1;" edge="1" parent="1">
          <mxGeometry width="50" height="50" relative="1" as="geometry">
            <mxPoint x="740" y="380" as="sourcePoint" />
            <mxPoint x="760" y="380" as="targetPoint" />
          </mxGeometry>
        </mxCell>
        <mxCell id="afJA_rKFMBOFENiafJzM-42" value="" style="endArrow=none;html=1;rounded=0;" edge="1" parent="1">
          <mxGeometry width="50" height="50" relative="1" as="geometry">
            <mxPoint x="560" y="860" as="sourcePoint" />
            <mxPoint x="560" y="150" as="targetPoint" />
          </mxGeometry>
        </mxCell>
        <mxCell id="afJA_rKFMBOFENiafJzM-43" value="" style="group" vertex="1" connectable="0" parent="1">
          <mxGeometry x="480" y="330" width="80" height="40" as="geometry" />
        </mxCell>
        <mxCell id="afJA_rKFMBOFENiafJzM-44" value="" style="rounded=0;whiteSpace=wrap;html=1;fillColor=#dae8fc;strokeColor=#6c8ebf;" vertex="1" parent="afJA_rKFMBOFENiafJzM-43">
          <mxGeometry x="20" width="40" height="40" as="geometry" />
        </mxCell>
        <mxCell id="afJA_rKFMBOFENiafJzM-45" value="" style="triangle;whiteSpace=wrap;html=1;rotation=-90;fillColor=#dae8fc;strokeColor=#6c8ebf;" vertex="1" parent="afJA_rKFMBOFENiafJzM-43">
          <mxGeometry x="35" y="25" width="10" height="20" as="geometry" />
        </mxCell>
        <mxCell id="afJA_rKFMBOFENiafJzM-46" value="" style="endArrow=none;html=1;rounded=0;exitX=1;exitY=0.5;exitDx=0;exitDy=0;" edge="1" parent="afJA_rKFMBOFENiafJzM-43" source="afJA_rKFMBOFENiafJzM-44">
          <mxGeometry width="50" height="50" relative="1" as="geometry">
            <mxPoint x="110" y="80" as="sourcePoint" />
            <mxPoint x="80" y="20" as="targetPoint" />
          </mxGeometry>
        </mxCell>
        <mxCell id="afJA_rKFMBOFENiafJzM-53" value="" style="group" vertex="1" connectable="0" parent="1">
          <mxGeometry x="480" y="280" width="80" height="40" as="geometry" />
        </mxCell>
        <mxCell id="afJA_rKFMBOFENiafJzM-54" value="" style="rounded=0;whiteSpace=wrap;html=1;fillColor=#dae8fc;strokeColor=#6c8ebf;" vertex="1" parent="afJA_rKFMBOFENiafJzM-53">
          <mxGeometry x="20" width="40" height="40" as="geometry" />
        </mxCell>
        <mxCell id="afJA_rKFMBOFENiafJzM-55" value="" style="triangle;whiteSpace=wrap;html=1;rotation=-90;fillColor=#dae8fc;strokeColor=#6c8ebf;" vertex="1" parent="afJA_rKFMBOFENiafJzM-53">
          <mxGeometry x="35" y="25" width="10" height="20" as="geometry" />
        </mxCell>
        <mxCell id="afJA_rKFMBOFENiafJzM-56" value="" style="endArrow=none;html=1;rounded=0;exitX=1;exitY=0.5;exitDx=0;exitDy=0;" edge="1" parent="afJA_rKFMBOFENiafJzM-53" source="afJA_rKFMBOFENiafJzM-54">
          <mxGeometry width="50" height="50" relative="1" as="geometry">
            <mxPoint x="110" y="80" as="sourcePoint" />
            <mxPoint x="80" y="20" as="targetPoint" />
          </mxGeometry>
        </mxCell>
        <mxCell id="afJA_rKFMBOFENiafJzM-57" value="" style="group" vertex="1" connectable="0" parent="1">
          <mxGeometry x="480" y="230" width="80" height="40" as="geometry" />
        </mxCell>
        <mxCell id="afJA_rKFMBOFENiafJzM-58" value="" style="rounded=0;whiteSpace=wrap;html=1;fillColor=#dae8fc;strokeColor=#6c8ebf;" vertex="1" parent="afJA_rKFMBOFENiafJzM-57">
          <mxGeometry x="20" width="40" height="40" as="geometry" />
        </mxCell>
        <mxCell id="afJA_rKFMBOFENiafJzM-59" value="" style="triangle;whiteSpace=wrap;html=1;rotation=-90;fillColor=#dae8fc;strokeColor=#6c8ebf;" vertex="1" parent="afJA_rKFMBOFENiafJzM-57">
          <mxGeometry x="35" y="25" width="10" height="20" as="geometry" />
        </mxCell>
        <mxCell id="afJA_rKFMBOFENiafJzM-60" value="" style="endArrow=none;html=1;rounded=0;exitX=1;exitY=0.5;exitDx=0;exitDy=0;" edge="1" parent="afJA_rKFMBOFENiafJzM-57" source="afJA_rKFMBOFENiafJzM-58">
          <mxGeometry width="50" height="50" relative="1" as="geometry">
            <mxPoint x="110" y="80" as="sourcePoint" />
            <mxPoint x="80" y="20" as="targetPoint" />
          </mxGeometry>
        </mxCell>
        <mxCell id="afJA_rKFMBOFENiafJzM-61" value="" style="group" vertex="1" connectable="0" parent="1">
          <mxGeometry x="480" y="180" width="80" height="40" as="geometry" />
        </mxCell>
        <mxCell id="afJA_rKFMBOFENiafJzM-62" value="" style="rounded=0;whiteSpace=wrap;html=1;fillColor=#dae8fc;strokeColor=#6c8ebf;" vertex="1" parent="afJA_rKFMBOFENiafJzM-61">
          <mxGeometry x="20" width="40" height="40" as="geometry" />
        </mxCell>
        <mxCell id="afJA_rKFMBOFENiafJzM-63" value="" style="triangle;whiteSpace=wrap;html=1;rotation=-90;fillColor=#dae8fc;strokeColor=#6c8ebf;" vertex="1" parent="afJA_rKFMBOFENiafJzM-61">
          <mxGeometry x="35" y="25" width="10" height="20" as="geometry" />
        </mxCell>
        <mxCell id="afJA_rKFMBOFENiafJzM-64" value="" style="endArrow=none;html=1;rounded=0;exitX=1;exitY=0.5;exitDx=0;exitDy=0;" edge="1" parent="afJA_rKFMBOFENiafJzM-61" source="afJA_rKFMBOFENiafJzM-62">
          <mxGeometry width="50" height="50" relative="1" as="geometry">
            <mxPoint x="110" y="80" as="sourcePoint" />
            <mxPoint x="80" y="20" as="targetPoint" />
          </mxGeometry>
        </mxCell>
        <mxCell id="afJA_rKFMBOFENiafJzM-65" value="" style="group" vertex="1" connectable="0" parent="1">
          <mxGeometry x="480" y="130" width="80" height="40" as="geometry" />
        </mxCell>
        <mxCell id="afJA_rKFMBOFENiafJzM-66" value="" style="rounded=0;whiteSpace=wrap;html=1;fillColor=#dae8fc;strokeColor=#6c8ebf;" vertex="1" parent="afJA_rKFMBOFENiafJzM-65">
          <mxGeometry x="20" width="40" height="40" as="geometry" />
        </mxCell>
        <mxCell id="afJA_rKFMBOFENiafJzM-67" value="" style="triangle;whiteSpace=wrap;html=1;rotation=-90;fillColor=#dae8fc;strokeColor=#6c8ebf;" vertex="1" parent="afJA_rKFMBOFENiafJzM-65">
          <mxGeometry x="35" y="25" width="10" height="20" as="geometry" />
        </mxCell>
        <mxCell id="afJA_rKFMBOFENiafJzM-68" value="" style="endArrow=none;html=1;rounded=0;exitX=1;exitY=0.5;exitDx=0;exitDy=0;" edge="1" parent="afJA_rKFMBOFENiafJzM-65" source="afJA_rKFMBOFENiafJzM-66">
          <mxGeometry width="50" height="50" relative="1" as="geometry">
            <mxPoint x="110" y="80" as="sourcePoint" />
            <mxPoint x="80" y="20" as="targetPoint" />
          </mxGeometry>
        </mxCell>
        <mxCell id="afJA_rKFMBOFENiafJzM-69" value="" style="group" vertex="1" connectable="0" parent="1">
          <mxGeometry x="410" y="240" width="50" height="20" as="geometry" />
        </mxCell>
        <mxCell id="afJA_rKFMBOFENiafJzM-70" value="" style="triangle;whiteSpace=wrap;html=1;strokeColor=none;container=0;fillColor=#d5e8d4;" vertex="1" parent="afJA_rKFMBOFENiafJzM-69">
          <mxGeometry x="40" width="10" height="20" as="geometry" />
        </mxCell>
        <mxCell id="afJA_rKFMBOFENiafJzM-71" value="vec" style="rounded=0;whiteSpace=wrap;html=1;strokeColor=none;container=0;fillColor=#d5e8d4;glass=0;" vertex="1" parent="afJA_rKFMBOFENiafJzM-69">
          <mxGeometry width="40" height="20" as="geometry" />
        </mxCell>
        <mxCell id="afJA_rKFMBOFENiafJzM-72" value="" style="endArrow=none;html=1;rounded=0;fillColor=#d5e8d4;strokeColor=#82b366;" edge="1" parent="afJA_rKFMBOFENiafJzM-69">
          <mxGeometry width="50" height="50" relative="1" as="geometry">
            <mxPoint x="10" y="20" as="sourcePoint" />
            <mxPoint x="10" y="20" as="targetPoint" />
            <Array as="points">
              <mxPoint x="40" y="20" />
              <mxPoint x="50" y="10" />
              <mxPoint x="40" />
              <mxPoint />
              <mxPoint y="20" />
            </Array>
          </mxGeometry>
        </mxCell>
        <mxCell id="afJA_rKFMBOFENiafJzM-73" value="" style="endArrow=none;html=1;rounded=0;exitX=0;exitY=0.5;exitDx=0;exitDy=0;" edge="1" parent="1" source="afJA_rKFMBOFENiafJzM-44">
          <mxGeometry width="50" height="50" relative="1" as="geometry">
            <mxPoint x="490" y="390" as="sourcePoint" />
            <mxPoint x="500" y="150" as="targetPoint" />
            <Array as="points">
              <mxPoint x="480" y="350" />
              <mxPoint x="480" y="150" />
            </Array>
          </mxGeometry>
        </mxCell>
        <mxCell id="afJA_rKFMBOFENiafJzM-74" value="" style="endArrow=none;html=1;rounded=0;" edge="1" parent="1">
          <mxGeometry width="50" height="50" relative="1" as="geometry">
            <mxPoint x="500" y="250" as="sourcePoint" />
            <mxPoint x="460" y="250" as="targetPoint" />
          </mxGeometry>
        </mxCell>
        <mxCell id="afJA_rKFMBOFENiafJzM-75" value="" style="endArrow=none;html=1;rounded=0;" edge="1" parent="1">
          <mxGeometry width="50" height="50" relative="1" as="geometry">
            <mxPoint x="500" y="300" as="sourcePoint" />
            <mxPoint x="480" y="300" as="targetPoint" />
          </mxGeometry>
        </mxCell>
        <mxCell id="afJA_rKFMBOFENiafJzM-76" value="" style="endArrow=none;html=1;rounded=0;" edge="1" parent="1">
          <mxGeometry width="50" height="50" relative="1" as="geometry">
            <mxPoint x="500" y="200" as="sourcePoint" />
            <mxPoint x="480" y="200" as="targetPoint" />
          </mxGeometry>
        </mxCell>
        <mxCell id="afJA_rKFMBOFENiafJzM-77" value="*" style="rounded=0;whiteSpace=wrap;html=1;fontSize=24;fillColor=#fff2cc;strokeColor=#d6b656;" vertex="1" parent="1">
          <mxGeometry x="580" y="470" width="40" height="80" as="geometry" />
        </mxCell>
        <mxCell id="afJA_rKFMBOFENiafJzM-78" value="" style="endArrow=none;html=1;rounded=0;entryX=0;entryY=0.25;entryDx=0;entryDy=0;" edge="1" parent="1" target="afJA_rKFMBOFENiafJzM-77">
          <mxGeometry width="50" height="50" relative="1" as="geometry">
            <mxPoint x="560" y="490" as="sourcePoint" />
            <mxPoint x="770" y="500" as="targetPoint" />
          </mxGeometry>
        </mxCell>
        <mxCell id="afJA_rKFMBOFENiafJzM-79" value="" style="endArrow=none;html=1;rounded=0;entryX=0;entryY=0.25;entryDx=0;entryDy=0;fillColor=#f5f5f5;strokeColor=#666666;" edge="1" parent="1">
          <mxGeometry width="50" height="50" relative="1" as="geometry">
            <mxPoint x="520" y="530" as="sourcePoint" />
            <mxPoint x="580" y="530" as="targetPoint" />
          </mxGeometry>
        </mxCell>
        <mxCell id="afJA_rKFMBOFENiafJzM-80" value="" style="endArrow=none;html=1;rounded=0;" edge="1" parent="1">
          <mxGeometry width="50" height="50" relative="1" as="geometry">
            <mxPoint x="620" y="510" as="sourcePoint" />
            <mxPoint x="660" y="510" as="targetPoint" />
          </mxGeometry>
        </mxCell>
        <mxCell id="afJA_rKFMBOFENiafJzM-81" value="&#39;8" style="text;html=1;strokeColor=none;fillColor=none;align=center;verticalAlign=middle;whiteSpace=wrap;rounded=0;fontSize=10;" vertex="1" parent="1">
          <mxGeometry x="620" y="495" width="20" height="10" as="geometry" />
        </mxCell>
        <mxCell id="afJA_rKFMBOFENiafJzM-82" value="&#39;0" style="text;html=1;strokeColor=none;fillColor=none;align=center;verticalAlign=middle;whiteSpace=wrap;rounded=0;fontSize=10;" vertex="1" parent="1">
          <mxGeometry x="560" y="515" width="20" height="10" as="geometry" />
        </mxCell>
        <mxCell id="afJA_rKFMBOFENiafJzM-83" value="&#39;0" style="text;html=1;strokeColor=none;fillColor=none;align=center;verticalAlign=middle;whiteSpace=wrap;rounded=0;fontSize=10;" vertex="1" parent="1">
          <mxGeometry x="560" y="475" width="20" height="10" as="geometry" />
        </mxCell>
        <mxCell id="afJA_rKFMBOFENiafJzM-84" value="+&lt;br&gt;acc" style="rounded=0;whiteSpace=wrap;html=1;fontSize=24;fillColor=#fff2cc;strokeColor=#d6b656;" vertex="1" parent="1">
          <mxGeometry x="680" y="450" width="40" height="80" as="geometry" />
        </mxCell>
        <mxCell id="afJA_rKFMBOFENiafJzM-85" value="" style="endArrow=none;html=1;rounded=0;entryX=0;entryY=0.25;entryDx=0;entryDy=0;" edge="1" parent="1" target="afJA_rKFMBOFENiafJzM-84">
          <mxGeometry width="50" height="50" relative="1" as="geometry">
            <mxPoint x="660" y="470" as="sourcePoint" />
            <mxPoint x="870" y="480" as="targetPoint" />
          </mxGeometry>
        </mxCell>
        <mxCell id="afJA_rKFMBOFENiafJzM-86" value="" style="endArrow=none;html=1;rounded=0;entryX=0;entryY=0.25;entryDx=0;entryDy=0;" edge="1" parent="1">
          <mxGeometry width="50" height="50" relative="1" as="geometry">
            <mxPoint x="660" y="510" as="sourcePoint" />
            <mxPoint x="680" y="510" as="targetPoint" />
          </mxGeometry>
        </mxCell>
        <mxCell id="afJA_rKFMBOFENiafJzM-87" value="" style="endArrow=none;html=1;rounded=0;" edge="1" parent="1">
          <mxGeometry width="50" height="50" relative="1" as="geometry">
            <mxPoint x="720" y="490" as="sourcePoint" />
            <mxPoint x="660" y="470" as="targetPoint" />
            <Array as="points">
              <mxPoint x="740" y="490" />
              <mxPoint x="740" y="430" />
              <mxPoint x="660" y="430" />
            </Array>
          </mxGeometry>
        </mxCell>
        <mxCell id="afJA_rKFMBOFENiafJzM-88" value="&#39;0" style="text;html=1;strokeColor=none;fillColor=none;align=center;verticalAlign=middle;whiteSpace=wrap;rounded=0;fontSize=10;" vertex="1" parent="1">
          <mxGeometry x="660" y="495" width="20" height="10" as="geometry" />
        </mxCell>
        <mxCell id="afJA_rKFMBOFENiafJzM-89" value="" style="endArrow=classic;html=1;rounded=0;endFill=1;" edge="1" parent="1">
          <mxGeometry width="50" height="50" relative="1" as="geometry">
            <mxPoint x="740" y="490" as="sourcePoint" />
            <mxPoint x="760" y="490" as="targetPoint" />
          </mxGeometry>
        </mxCell>
        <mxCell id="afJA_rKFMBOFENiafJzM-90" value="*" style="rounded=0;whiteSpace=wrap;html=1;fontSize=24;fillColor=#fff2cc;strokeColor=#d6b656;" vertex="1" parent="1">
          <mxGeometry x="580" y="580" width="40" height="80" as="geometry" />
        </mxCell>
        <mxCell id="afJA_rKFMBOFENiafJzM-91" value="" style="endArrow=none;html=1;rounded=0;entryX=0;entryY=0.25;entryDx=0;entryDy=0;" edge="1" parent="1" target="afJA_rKFMBOFENiafJzM-90">
          <mxGeometry width="50" height="50" relative="1" as="geometry">
            <mxPoint x="560" y="600" as="sourcePoint" />
            <mxPoint x="770" y="610" as="targetPoint" />
          </mxGeometry>
        </mxCell>
        <mxCell id="afJA_rKFMBOFENiafJzM-92" value="" style="endArrow=none;html=1;rounded=0;entryX=0;entryY=0.25;entryDx=0;entryDy=0;fillColor=#f5f5f5;strokeColor=#666666;" edge="1" parent="1">
          <mxGeometry width="50" height="50" relative="1" as="geometry">
            <mxPoint x="520" y="640" as="sourcePoint" />
            <mxPoint x="580" y="640" as="targetPoint" />
          </mxGeometry>
        </mxCell>
        <mxCell id="afJA_rKFMBOFENiafJzM-93" value="" style="endArrow=none;html=1;rounded=0;" edge="1" parent="1">
          <mxGeometry width="50" height="50" relative="1" as="geometry">
            <mxPoint x="620" y="620" as="sourcePoint" />
            <mxPoint x="660" y="620" as="targetPoint" />
          </mxGeometry>
        </mxCell>
        <mxCell id="afJA_rKFMBOFENiafJzM-94" value="&#39;8" style="text;html=1;strokeColor=none;fillColor=none;align=center;verticalAlign=middle;whiteSpace=wrap;rounded=0;fontSize=10;" vertex="1" parent="1">
          <mxGeometry x="620" y="605" width="20" height="10" as="geometry" />
        </mxCell>
        <mxCell id="afJA_rKFMBOFENiafJzM-95" value="&#39;0" style="text;html=1;strokeColor=none;fillColor=none;align=center;verticalAlign=middle;whiteSpace=wrap;rounded=0;fontSize=10;" vertex="1" parent="1">
          <mxGeometry x="560" y="625" width="20" height="10" as="geometry" />
        </mxCell>
        <mxCell id="afJA_rKFMBOFENiafJzM-96" value="&#39;0" style="text;html=1;strokeColor=none;fillColor=none;align=center;verticalAlign=middle;whiteSpace=wrap;rounded=0;fontSize=10;" vertex="1" parent="1">
          <mxGeometry x="560" y="585" width="20" height="10" as="geometry" />
        </mxCell>
        <mxCell id="afJA_rKFMBOFENiafJzM-97" value="+&lt;br&gt;acc" style="rounded=0;whiteSpace=wrap;html=1;fontSize=24;fillColor=#fff2cc;strokeColor=#d6b656;" vertex="1" parent="1">
          <mxGeometry x="680" y="560" width="40" height="80" as="geometry" />
        </mxCell>
        <mxCell id="afJA_rKFMBOFENiafJzM-98" value="" style="endArrow=none;html=1;rounded=0;entryX=0;entryY=0.25;entryDx=0;entryDy=0;" edge="1" parent="1" target="afJA_rKFMBOFENiafJzM-97">
          <mxGeometry width="50" height="50" relative="1" as="geometry">
            <mxPoint x="660" y="580" as="sourcePoint" />
            <mxPoint x="870" y="590" as="targetPoint" />
          </mxGeometry>
        </mxCell>
        <mxCell id="afJA_rKFMBOFENiafJzM-99" value="" style="endArrow=none;html=1;rounded=0;entryX=0;entryY=0.25;entryDx=0;entryDy=0;" edge="1" parent="1">
          <mxGeometry width="50" height="50" relative="1" as="geometry">
            <mxPoint x="660" y="620" as="sourcePoint" />
            <mxPoint x="680" y="620" as="targetPoint" />
          </mxGeometry>
        </mxCell>
        <mxCell id="afJA_rKFMBOFENiafJzM-100" value="" style="endArrow=none;html=1;rounded=0;" edge="1" parent="1">
          <mxGeometry width="50" height="50" relative="1" as="geometry">
            <mxPoint x="720" y="600" as="sourcePoint" />
            <mxPoint x="660" y="580" as="targetPoint" />
            <Array as="points">
              <mxPoint x="740" y="600" />
              <mxPoint x="740" y="540" />
              <mxPoint x="660" y="540" />
            </Array>
          </mxGeometry>
        </mxCell>
        <mxCell id="afJA_rKFMBOFENiafJzM-101" value="&#39;0" style="text;html=1;strokeColor=none;fillColor=none;align=center;verticalAlign=middle;whiteSpace=wrap;rounded=0;fontSize=10;" vertex="1" parent="1">
          <mxGeometry x="660" y="605" width="20" height="10" as="geometry" />
        </mxCell>
        <mxCell id="afJA_rKFMBOFENiafJzM-102" value="" style="endArrow=classic;html=1;rounded=0;endFill=1;" edge="1" parent="1">
          <mxGeometry width="50" height="50" relative="1" as="geometry">
            <mxPoint x="740" y="600" as="sourcePoint" />
            <mxPoint x="760" y="600" as="targetPoint" />
          </mxGeometry>
        </mxCell>
        <mxCell id="afJA_rKFMBOFENiafJzM-103" value="*" style="rounded=0;whiteSpace=wrap;html=1;fontSize=24;fillColor=#fff2cc;strokeColor=#d6b656;" vertex="1" parent="1">
          <mxGeometry x="580" y="690" width="40" height="80" as="geometry" />
        </mxCell>
        <mxCell id="afJA_rKFMBOFENiafJzM-104" value="" style="endArrow=none;html=1;rounded=0;entryX=0;entryY=0.25;entryDx=0;entryDy=0;" edge="1" parent="1" target="afJA_rKFMBOFENiafJzM-103">
          <mxGeometry width="50" height="50" relative="1" as="geometry">
            <mxPoint x="560" y="710" as="sourcePoint" />
            <mxPoint x="770" y="720" as="targetPoint" />
          </mxGeometry>
        </mxCell>
        <mxCell id="afJA_rKFMBOFENiafJzM-105" value="" style="endArrow=none;html=1;rounded=0;entryX=0;entryY=0.25;entryDx=0;entryDy=0;fillColor=#f5f5f5;strokeColor=#666666;" edge="1" parent="1">
          <mxGeometry width="50" height="50" relative="1" as="geometry">
            <mxPoint x="520" y="750" as="sourcePoint" />
            <mxPoint x="580" y="750" as="targetPoint" />
          </mxGeometry>
        </mxCell>
        <mxCell id="afJA_rKFMBOFENiafJzM-106" value="" style="endArrow=none;html=1;rounded=0;" edge="1" parent="1">
          <mxGeometry width="50" height="50" relative="1" as="geometry">
            <mxPoint x="620" y="730" as="sourcePoint" />
            <mxPoint x="660" y="730" as="targetPoint" />
          </mxGeometry>
        </mxCell>
        <mxCell id="afJA_rKFMBOFENiafJzM-107" value="&#39;8" style="text;html=1;strokeColor=none;fillColor=none;align=center;verticalAlign=middle;whiteSpace=wrap;rounded=0;fontSize=10;" vertex="1" parent="1">
          <mxGeometry x="620" y="715" width="20" height="10" as="geometry" />
        </mxCell>
        <mxCell id="afJA_rKFMBOFENiafJzM-108" value="&#39;0" style="text;html=1;strokeColor=none;fillColor=none;align=center;verticalAlign=middle;whiteSpace=wrap;rounded=0;fontSize=10;" vertex="1" parent="1">
          <mxGeometry x="560" y="735" width="20" height="10" as="geometry" />
        </mxCell>
        <mxCell id="afJA_rKFMBOFENiafJzM-109" value="&#39;0" style="text;html=1;strokeColor=none;fillColor=none;align=center;verticalAlign=middle;whiteSpace=wrap;rounded=0;fontSize=10;" vertex="1" parent="1">
          <mxGeometry x="560" y="695" width="20" height="10" as="geometry" />
        </mxCell>
        <mxCell id="afJA_rKFMBOFENiafJzM-110" value="+&lt;br&gt;acc" style="rounded=0;whiteSpace=wrap;html=1;fontSize=24;fillColor=#fff2cc;strokeColor=#d6b656;" vertex="1" parent="1">
          <mxGeometry x="680" y="670" width="40" height="80" as="geometry" />
        </mxCell>
        <mxCell id="afJA_rKFMBOFENiafJzM-111" value="" style="endArrow=none;html=1;rounded=0;entryX=0;entryY=0.25;entryDx=0;entryDy=0;" edge="1" parent="1" target="afJA_rKFMBOFENiafJzM-110">
          <mxGeometry width="50" height="50" relative="1" as="geometry">
            <mxPoint x="660" y="690" as="sourcePoint" />
            <mxPoint x="870" y="700" as="targetPoint" />
          </mxGeometry>
        </mxCell>
        <mxCell id="afJA_rKFMBOFENiafJzM-112" value="" style="endArrow=none;html=1;rounded=0;entryX=0;entryY=0.25;entryDx=0;entryDy=0;" edge="1" parent="1">
          <mxGeometry width="50" height="50" relative="1" as="geometry">
            <mxPoint x="660" y="730" as="sourcePoint" />
            <mxPoint x="680" y="730" as="targetPoint" />
          </mxGeometry>
        </mxCell>
        <mxCell id="afJA_rKFMBOFENiafJzM-113" value="" style="endArrow=none;html=1;rounded=0;" edge="1" parent="1">
          <mxGeometry width="50" height="50" relative="1" as="geometry">
            <mxPoint x="720" y="710" as="sourcePoint" />
            <mxPoint x="660" y="690" as="targetPoint" />
            <Array as="points">
              <mxPoint x="740" y="710" />
              <mxPoint x="740" y="650" />
              <mxPoint x="660" y="650" />
            </Array>
          </mxGeometry>
        </mxCell>
        <mxCell id="afJA_rKFMBOFENiafJzM-114" value="&#39;0" style="text;html=1;strokeColor=none;fillColor=none;align=center;verticalAlign=middle;whiteSpace=wrap;rounded=0;fontSize=10;" vertex="1" parent="1">
          <mxGeometry x="660" y="715" width="20" height="10" as="geometry" />
        </mxCell>
        <mxCell id="afJA_rKFMBOFENiafJzM-115" value="" style="endArrow=classic;html=1;rounded=0;endFill=1;" edge="1" parent="1">
          <mxGeometry width="50" height="50" relative="1" as="geometry">
            <mxPoint x="740" y="710" as="sourcePoint" />
            <mxPoint x="760" y="710" as="targetPoint" />
          </mxGeometry>
        </mxCell>
        <mxCell id="afJA_rKFMBOFENiafJzM-116" value="*" style="rounded=0;whiteSpace=wrap;html=1;fontSize=24;fillColor=#fff2cc;strokeColor=#d6b656;" vertex="1" parent="1">
          <mxGeometry x="580" y="800" width="40" height="80" as="geometry" />
        </mxCell>
        <mxCell id="afJA_rKFMBOFENiafJzM-117" value="" style="endArrow=none;html=1;rounded=0;entryX=0;entryY=0.25;entryDx=0;entryDy=0;" edge="1" parent="1" target="afJA_rKFMBOFENiafJzM-116">
          <mxGeometry width="50" height="50" relative="1" as="geometry">
            <mxPoint x="560" y="820" as="sourcePoint" />
            <mxPoint x="770" y="830" as="targetPoint" />
          </mxGeometry>
        </mxCell>
        <mxCell id="afJA_rKFMBOFENiafJzM-118" value="" style="endArrow=none;html=1;rounded=0;entryX=0;entryY=0.25;entryDx=0;entryDy=0;fillColor=#f5f5f5;strokeColor=#666666;" edge="1" parent="1">
          <mxGeometry width="50" height="50" relative="1" as="geometry">
            <mxPoint x="520" y="860" as="sourcePoint" />
            <mxPoint x="580" y="860" as="targetPoint" />
          </mxGeometry>
        </mxCell>
        <mxCell id="afJA_rKFMBOFENiafJzM-119" value="" style="endArrow=none;html=1;rounded=0;" edge="1" parent="1">
          <mxGeometry width="50" height="50" relative="1" as="geometry">
            <mxPoint x="620" y="840" as="sourcePoint" />
            <mxPoint x="660" y="840" as="targetPoint" />
          </mxGeometry>
        </mxCell>
        <mxCell id="afJA_rKFMBOFENiafJzM-120" value="&#39;8" style="text;html=1;strokeColor=none;fillColor=none;align=center;verticalAlign=middle;whiteSpace=wrap;rounded=0;fontSize=10;" vertex="1" parent="1">
          <mxGeometry x="620" y="825" width="20" height="10" as="geometry" />
        </mxCell>
        <mxCell id="afJA_rKFMBOFENiafJzM-121" value="&#39;0" style="text;html=1;strokeColor=none;fillColor=none;align=center;verticalAlign=middle;whiteSpace=wrap;rounded=0;fontSize=10;" vertex="1" parent="1">
          <mxGeometry x="560" y="845" width="20" height="10" as="geometry" />
        </mxCell>
        <mxCell id="afJA_rKFMBOFENiafJzM-122" value="&#39;0" style="text;html=1;strokeColor=none;fillColor=none;align=center;verticalAlign=middle;whiteSpace=wrap;rounded=0;fontSize=10;" vertex="1" parent="1">
          <mxGeometry x="560" y="805" width="20" height="10" as="geometry" />
        </mxCell>
        <mxCell id="afJA_rKFMBOFENiafJzM-123" value="+&lt;br&gt;acc" style="rounded=0;whiteSpace=wrap;html=1;fontSize=24;fillColor=#fff2cc;strokeColor=#d6b656;" vertex="1" parent="1">
          <mxGeometry x="680" y="780" width="40" height="80" as="geometry" />
        </mxCell>
        <mxCell id="afJA_rKFMBOFENiafJzM-124" value="" style="endArrow=none;html=1;rounded=0;entryX=0;entryY=0.25;entryDx=0;entryDy=0;" edge="1" parent="1" target="afJA_rKFMBOFENiafJzM-123">
          <mxGeometry width="50" height="50" relative="1" as="geometry">
            <mxPoint x="660" y="800" as="sourcePoint" />
            <mxPoint x="870" y="810" as="targetPoint" />
          </mxGeometry>
        </mxCell>
        <mxCell id="afJA_rKFMBOFENiafJzM-125" value="" style="endArrow=none;html=1;rounded=0;entryX=0;entryY=0.25;entryDx=0;entryDy=0;" edge="1" parent="1">
          <mxGeometry width="50" height="50" relative="1" as="geometry">
            <mxPoint x="660" y="840" as="sourcePoint" />
            <mxPoint x="680" y="840" as="targetPoint" />
          </mxGeometry>
        </mxCell>
        <mxCell id="afJA_rKFMBOFENiafJzM-126" value="" style="endArrow=none;html=1;rounded=0;" edge="1" parent="1">
          <mxGeometry width="50" height="50" relative="1" as="geometry">
            <mxPoint x="720" y="820" as="sourcePoint" />
            <mxPoint x="660" y="800" as="targetPoint" />
            <Array as="points">
              <mxPoint x="740" y="820" />
              <mxPoint x="740" y="760" />
              <mxPoint x="660" y="760" />
            </Array>
          </mxGeometry>
        </mxCell>
        <mxCell id="afJA_rKFMBOFENiafJzM-127" value="&#39;0" style="text;html=1;strokeColor=none;fillColor=none;align=center;verticalAlign=middle;whiteSpace=wrap;rounded=0;fontSize=10;" vertex="1" parent="1">
          <mxGeometry x="660" y="825" width="20" height="10" as="geometry" />
        </mxCell>
        <mxCell id="afJA_rKFMBOFENiafJzM-128" value="" style="endArrow=classic;html=1;rounded=0;endFill=1;" edge="1" parent="1">
          <mxGeometry width="50" height="50" relative="1" as="geometry">
            <mxPoint x="740" y="820" as="sourcePoint" />
            <mxPoint x="760" y="820" as="targetPoint" />
          </mxGeometry>
        </mxCell>
      </root>
    </mxGraphModel>
  </diagram>
</mxfile>
